<?xml version="1.0" encoding="utf-8"?>
<!-- Generator: Adobe Illustrator 21.1.0, SVG Export Plug-In . SVG Version: 6.00 Build 0)  -->
<svg version="1.1" id="Layer_1" xmlns="http://www.w3.org/2000/svg" xmlns:xlink="http://www.w3.org/1999/xlink" x="0px" y="0px"
	 viewBox="0 0 820.8 104.3" style="enable-background:new 0 0 820.8 104.3;" xml:space="preserve">
<style type="text/css">
	.st0{fill:none;stroke:#000000;stroke-width:0.7776;stroke-miterlimit:3.8637;}
	.st1{fill:#00A984;stroke:#00A984;stroke-width:2.4718;stroke-miterlimit:3.8636;}
	.st2{fill:#00A984;stroke:#00A984;stroke-width:2.472;}
</style>
<g>
	<path d="M809.2,7.2h0.8c0.8,0,1.4-0.1,1.7-0.3c0.3-0.2,0.5-0.5,0.5-1c0-0.3-0.1-0.5-0.2-0.7c-0.2-0.2-0.4-0.4-0.6-0.4
		c-0.3-0.1-0.7-0.1-1.4-0.1h-0.7L809.2,7.2L809.2,7.2z M806.6,2.2h2.7c1.5,0,2.6,0.1,3.2,0.4c0.6,0.3,1.1,0.7,1.5,1.3
		c0.4,0.6,0.6,1.3,0.6,2.1c0,0.9-0.2,1.6-0.6,2.1c-0.4,0.6-1.1,1-1.9,1.3l3.2,5.7h-2.8l-3-5.5h-0.2v5.5h-2.6V2.2H806.6z"/>
	<ellipse class="st0" cx="810.4" cy="8.7" rx="9.1" ry="8.7"/>
	<path d="M264.6,44.6c-5.9,0-10.9,2-14.8,6c-3.9,3.9-5.9,9-5.9,15.1c0,6.3,1.9,11.5,5.8,15.4c3.9,3.9,8.9,5.9,14.8,5.9
		c6,0,10.9-2,14.9-6s5.9-9.1,6-15.3c0-6.2-2-11.3-5.9-15.2C275.6,46.5,270.6,44.6,264.6,44.6z M264.3,27.4c7.2,0,13.9,1.7,20.2,5.2
		c6.3,3.4,11.3,8.1,14.8,14s5.3,12.3,5.3,19.1c0,6.9-1.8,13.3-5.4,19.3c-3.5,6-8.4,10.7-14.6,14.1c-6.2,3.3-13,5-20.4,5
		c-10.9,0-20.3-3.7-28-11.1c-7.7-7.5-11.6-16.5-11.6-27.1c0-11.4,4.4-20.9,13.1-28.5C245.6,30.7,254.3,27.4,264.3,27.4z"/>
	<path d="M39.8,44.2c-5.9,0-10.9,2-14.8,6s-5.9,9.1-5.9,15.3c0,6.3,2,11.5,6,15.5c4,4.1,8.9,6.1,14.8,6.1c6,0,11-2,15-6
		s5.9-9.3,6-15.7c0-6.3-2-11.5-6-15.4C50.9,46.2,45.9,44.2,39.8,44.2z M59.9,29.3h19v72.8h-19v-7.7c-3.7,3.4-7.5,5.8-11.3,7.4
		c-3.7,1.5-7.8,2.2-12.2,2.2c-9.8,0-18.4-3.6-25.6-10.9S0,76.7,0,65.9c0-11.2,3.5-20.5,10.4-27.6c7-7.2,15.4-10.8,25.3-10.8
		c4.6,0,8.9,0.8,12.9,2.5s7.7,4.1,11.1,7.4v-8.1H59.9z"/>
	<path d="M140.3,39.4l-11.8,11.3c-4.8-4.6-9.2-6.8-13.1-6.8c-2.1,0-3.8,0.4-5,1.3c-1.2,0.8-1.8,1.9-1.8,3.2c0,1,0.4,1.9,1.1,2.7
		c0.8,0.8,2.7,1.9,5.7,3.3l7,3.3c7.4,3.5,12.4,7,15.2,10.6c2.8,3.6,4.1,7.9,4.1,12.7c0,6.5-2.5,11.9-7.5,16.2
		c-4.9,4.3-11.6,6.5-20,6.5c-11.1,0-20-4.2-26.6-12.5l11.8-12.3c2.2,2.5,4.9,4.5,7.8,6.1c3,1.5,5.7,2.3,8.1,2.3
		c2.5,0,4.6-0.6,6.1-1.7c1.5-1.2,2.3-2.5,2.3-4c0-2.8-2.8-5.6-8.3-8.2l-6.4-3.1C96.7,64.4,90.5,56.9,90.5,48
		c0-5.8,2.3-10.7,6.9-14.7c4.7-4.1,10.6-6.2,17.9-6.2c4.9,0,9.6,1.1,13.9,3.1C133.6,32.6,137.3,35.5,140.3,39.4z"/>
	<polygon points="151.8,0 171.5,0 171.5,60.1 200.6,29 225.3,29 191.5,65.1 229.4,104.3 204.9,104.3 171.5,69.6 171.5,104.3 
		151.8,104.3 	"/>
	<g>
		<polygon class="st1" points="435.4,1.4 342.2,102.8 303.2,102.8 396.5,1.4 		"/>
		<polygon class="st1" points="475.4,1.4 382.3,102.8 349.6,102.8 442.9,1.4 		"/>
		<polygon class="st2" points="514.1,1.4 420.9,102.8 393.9,102.8 487.1,1.4 		"/>
		<polygon class="st1" points="553.1,1.4 459.9,102.8 439.3,102.8 532.6,1.4 		"/>
		<polygon class="st1" points="592.8,1.4 499.7,102.8 483.7,102.8 577,1.4 		"/>
		<polygon class="st1" points="633.2,1.4 540.1,102.8 527,102.8 620.3,1.4 		"/>
		<polygon class="st1" points="673.6,1.4 580.5,102.8 570.3,102.8 663.5,1.4 		"/>
		<polygon class="st1" points="714,1.4 620.9,102.8 614.7,102.8 707.9,1.4 		"/>
		<polygon class="st1" points="754.4,1.4 661.3,102.8 657.7,102.8 751,1.4 		"/>
		<polygon class="st1" points="796,1.4 702.9,102.8 700.6,102.8 793.8,1.4 		"/>
	</g>
</g>
</svg>
